<?xml version="1.0" standalone="no"?>
<svg xmlns:xlink="http://www.w3.org/1999/xlink" id="wave" style="transform:rotate(0deg); transition: 0.3s" viewBox="0 0 1440 200" version="1.1" xmlns="http://www.w3.org/2000/svg"><defs><linearGradient id="sw-gradient-0" x1="0" x2="0" y1="1" y2="0"><stop stop-color="rgba(153, 217, 140, 1)" offset="0%"/><stop stop-color="rgba(153, 217, 140, 1)" offset="100%"/></linearGradient></defs><path style="transform:translate(0, 0px); opacity:1" fill="url(#sw-gradient-0)" d="M0,60L48,50C96,40,192,20,288,20C384,20,480,40,576,60C672,80,768,100,864,113.3C960,127,1056,133,1152,123.3C1248,113,1344,87,1440,83.3C1536,80,1632,100,1728,103.3C1824,107,1920,93,2016,96.7C2112,100,2208,120,2304,116.7C2400,113,2496,87,2592,86.7C2688,87,2784,113,2880,130C2976,147,3072,153,3168,150C3264,147,3360,133,3456,123.3C3552,113,3648,107,3744,86.7C3840,67,3936,33,4032,40C4128,47,4224,93,4320,120C4416,147,4512,153,4608,143.3C4704,133,4800,107,4896,93.3C4992,80,5088,80,5184,83.3C5280,87,5376,93,5472,83.3C5568,73,5664,47,5760,53.3C5856,60,5952,100,6048,106.7C6144,113,6240,87,6336,76.7C6432,67,6528,73,6624,73.3C6720,73,6816,67,6864,63.3L6912,60L6912,200L6864,200C6816,200,6720,200,6624,200C6528,200,6432,200,6336,200C6240,200,6144,200,6048,200C5952,200,5856,200,5760,200C5664,200,5568,200,5472,200C5376,200,5280,200,5184,200C5088,200,4992,200,4896,200C4800,200,4704,200,4608,200C4512,200,4416,200,4320,200C4224,200,4128,200,4032,200C3936,200,3840,200,3744,200C3648,200,3552,200,3456,200C3360,200,3264,200,3168,200C3072,200,2976,200,2880,200C2784,200,2688,200,2592,200C2496,200,2400,200,2304,200C2208,200,2112,200,2016,200C1920,200,1824,200,1728,200C1632,200,1536,200,1440,200C1344,200,1248,200,1152,200C1056,200,960,200,864,200C768,200,672,200,576,200C480,200,384,200,288,200C192,200,96,200,48,200L0,200Z"/></svg>