<?xml version="1.0" standalone="no"?>
<svg xmlns:xlink="http://www.w3.org/1999/xlink" id="wave" style="transform:rotate(0deg); transition: 0.3s" viewBox="0 0 1440 240" version="1.1" xmlns="http://www.w3.org/2000/svg"><defs><linearGradient id="sw-gradient-0" x1="0" x2="0" y1="1" y2="0"><stop stop-color="rgba(153, 217, 140, 1)" offset="0%"/><stop stop-color="rgba(153, 217, 140, 1)" offset="100%"/></linearGradient></defs><path style="transform:translate(0, 0px); opacity:1" fill="url(#sw-gradient-0)" d="M0,72L80,60C160,48,320,24,480,24C640,24,800,48,960,72C1120,96,1280,120,1440,136C1600,152,1760,160,1920,148C2080,136,2240,104,2400,100C2560,96,2720,120,2880,124C3040,128,3200,112,3360,116C3520,120,3680,144,3840,140C4000,136,4160,104,4320,104C4480,104,4640,136,4800,156C4960,176,5120,184,5280,180C5440,176,5600,160,5760,148C5920,136,6080,128,6240,104C6400,80,6560,40,6720,48C6880,56,7040,112,7200,144C7360,176,7520,184,7680,172C7840,160,8000,128,8160,112C8320,96,8480,96,8640,100C8800,104,8960,112,9120,100C9280,88,9440,56,9600,64C9760,72,9920,120,10080,128C10240,136,10400,104,10560,92C10720,80,10880,88,11040,88C11200,88,11360,80,11440,76L11520,72L11520,240L11440,240C11360,240,11200,240,11040,240C10880,240,10720,240,10560,240C10400,240,10240,240,10080,240C9920,240,9760,240,9600,240C9440,240,9280,240,9120,240C8960,240,8800,240,8640,240C8480,240,8320,240,8160,240C8000,240,7840,240,7680,240C7520,240,7360,240,7200,240C7040,240,6880,240,6720,240C6560,240,6400,240,6240,240C6080,240,5920,240,5760,240C5600,240,5440,240,5280,240C5120,240,4960,240,4800,240C4640,240,4480,240,4320,240C4160,240,4000,240,3840,240C3680,240,3520,240,3360,240C3200,240,3040,240,2880,240C2720,240,2560,240,2400,240C2240,240,2080,240,1920,240C1760,240,1600,240,1440,240C1280,240,1120,240,960,240C800,240,640,240,480,240C320,240,160,240,80,240L0,240Z"/></svg>