<?xml version="1.0" standalone="no"?>
<svg xmlns:xlink="http://www.w3.org/1999/xlink" id="wave" style="transform:rotate(0deg); transition: 0.3s" viewBox="0 0 1440 140" version="1.1" xmlns="http://www.w3.org/2000/svg"><defs><linearGradient id="sw-gradient-0" x1="0" x2="0" y1="1" y2="0"><stop stop-color="rgba(153, 217, 140, 1)" offset="0%"/><stop stop-color="rgba(153, 217, 140, 1)" offset="100%"/></linearGradient></defs><path style="transform:translate(0, 0px); opacity:1" fill="url(#sw-gradient-0)" d="M0,42L48,35C96,28,192,14,288,14C384,14,480,28,576,42C672,56,768,70,864,79.3C960,89,1056,93,1152,86.3C1248,79,1344,61,1440,58.3C1536,56,1632,70,1728,72.3C1824,75,1920,65,2016,67.7C2112,70,2208,84,2304,81.7C2400,79,2496,61,2592,60.7C2688,61,2784,79,2880,91C2976,103,3072,107,3168,105C3264,103,3360,93,3456,86.3C3552,79,3648,75,3744,60.7C3840,47,3936,23,4032,28C4128,33,4224,65,4320,84C4416,103,4512,107,4608,100.3C4704,93,4800,75,4896,65.3C4992,56,5088,56,5184,58.3C5280,61,5376,65,5472,58.3C5568,51,5664,33,5760,37.3C5856,42,5952,70,6048,74.7C6144,79,6240,61,6336,53.7C6432,47,6528,51,6624,51.3C6720,51,6816,47,6864,44.3L6912,42L6912,140L6864,140C6816,140,6720,140,6624,140C6528,140,6432,140,6336,140C6240,140,6144,140,6048,140C5952,140,5856,140,5760,140C5664,140,5568,140,5472,140C5376,140,5280,140,5184,140C5088,140,4992,140,4896,140C4800,140,4704,140,4608,140C4512,140,4416,140,4320,140C4224,140,4128,140,4032,140C3936,140,3840,140,3744,140C3648,140,3552,140,3456,140C3360,140,3264,140,3168,140C3072,140,2976,140,2880,140C2784,140,2688,140,2592,140C2496,140,2400,140,2304,140C2208,140,2112,140,2016,140C1920,140,1824,140,1728,140C1632,140,1536,140,1440,140C1344,140,1248,140,1152,140C1056,140,960,140,864,140C768,140,672,140,576,140C480,140,384,140,288,140C192,140,96,140,48,140L0,140Z"/></svg>