<?xml version="1.0" standalone="no"?>
<svg xmlns:xlink="http://www.w3.org/1999/xlink" id="wave" style="transform:rotate(180deg); transition: 0.3s" viewBox="0 0 1440 180" version="1.1" xmlns="http://www.w3.org/2000/svg"><defs><linearGradient id="sw-gradient-0" x1="0" x2="0" y1="1" y2="0"><stop stop-color="rgba(227, 255, 204, 1)" offset="0%"/><stop stop-color="rgba(227, 255, 204, 1)" offset="100%"/></linearGradient></defs><path style="transform:translate(0, 0px); opacity:1" fill="url(#sw-gradient-0)" d="M0,72L60,63C120,54,240,36,360,48C480,60,600,102,720,105C840,108,960,72,1080,66C1200,60,1320,84,1440,90C1560,96,1680,84,1800,84C1920,84,2040,96,2160,87C2280,78,2400,48,2520,33C2640,18,2760,18,2880,18C3000,18,3120,18,3240,15C3360,12,3480,6,3600,27C3720,48,3840,96,3960,96C4080,96,4200,48,4320,33C4440,18,4560,36,4680,54C4800,72,4920,90,5040,105C5160,120,5280,132,5400,123C5520,114,5640,84,5760,84C5880,84,6000,114,6120,120C6240,126,6360,108,6480,84C6600,60,6720,30,6840,18C6960,6,7080,12,7200,21C7320,30,7440,42,7560,57C7680,72,7800,90,7920,105C8040,120,8160,132,8280,123C8400,114,8520,84,8580,69L8640,54L8640,180L8580,180C8520,180,8400,180,8280,180C8160,180,8040,180,7920,180C7800,180,7680,180,7560,180C7440,180,7320,180,7200,180C7080,180,6960,180,6840,180C6720,180,6600,180,6480,180C6360,180,6240,180,6120,180C6000,180,5880,180,5760,180C5640,180,5520,180,5400,180C5280,180,5160,180,5040,180C4920,180,4800,180,4680,180C4560,180,4440,180,4320,180C4200,180,4080,180,3960,180C3840,180,3720,180,3600,180C3480,180,3360,180,3240,180C3120,180,3000,180,2880,180C2760,180,2640,180,2520,180C2400,180,2280,180,2160,180C2040,180,1920,180,1800,180C1680,180,1560,180,1440,180C1320,180,1200,180,1080,180C960,180,840,180,720,180C600,180,480,180,360,180C240,180,120,180,60,180L0,180Z"/></svg>